HIERARCHY
ROOT hip
{
  OFFSET 0 0 0
  CHANNELS 6 Xposition Yposition Zposition Zrotation Yrotation Xrotation
  JOINT abdomen
  {
    OFFSET 0 20.6881 -0.73152
    CHANNELS 3 Zrotation Xrotation Yrotation
    JOINT chest
    {
      OFFSET 0 11.7043 -0.48768
      CHANNELS 3 Zrotation Xrotation Yrotation
      JOINT neck
      {
        OFFSET 0 22.1894 -2.19456
        CHANNELS 3 Zrotation Xrotation Yrotation
        JOINT head
        {
          OFFSET -0.24384 7.07133 1.2192
          CHANNELS 3 Zrotation Xrotation Yrotation
          JOINT leftEye
          {
            OFFSET 4.14528 8.04674 8.04672
            CHANNELS 3 Zrotation Xrotation Yrotation
            End Site
            {
              OFFSET 1 0 0
            }
          }
          JOINT rightEye
          {
            OFFSET -3.6576 8.04674 8.04672
            CHANNELS 3 Zrotation Xrotation Yrotation
            End Site
            {
              OFFSET 1 0 0
            }
          }
        }
      }
      JOINT rCollar
      {
        OFFSET -2.68224 19.2634 -4.8768
        CHANNELS 3 Zrotation Xrotation Yrotation
        JOINT rShldr
        {
          OFFSET -8.77824 -1.95073 1.46304
          CHANNELS 3 Zrotation Xrotation Yrotation
          JOINT rForeArm
          {
            OFFSET -28.1742 -1.7115 0.48768
            CHANNELS 3 Zrotation Xrotation Yrotation
            JOINT rHand
            {
              OFFSET -22.5879 0.773209 7.07136
              CHANNELS 3 Zrotation Xrotation Yrotation
              JOINT rThumb1
              {
                OFFSET -1.2192 -0.487915 3.41376
                CHANNELS 3 Zrotation Xrotation Yrotation
                JOINT rThumb2
                {
                  OFFSET -3.37035 -0.52449 3.41376
                  CHANNELS 3 Zrotation Xrotation Yrotation
                  End Site
                  {
                    OFFSET -1.78271 -1.18214 1.43049
                  }
                }
              }
              JOINT rIndex1
              {
                OFFSET -7.75947 0.938293 5.60832
                CHANNELS 3 Zrotation Xrotation Yrotation
                JOINT rIndex2
                {
                  OFFSET -2.54057 -0.884171 1.56538
                  CHANNELS 3 Zrotation Xrotation Yrotation
                  End Site
                  {
                    OFFSET -1.62519 -0.234802 1.16502
                  }
                }
              }
              JOINT rMid1
              {
                OFFSET -8.24714 1.18213 3.41376
                CHANNELS 3 Zrotation Xrotation Yrotation
                JOINT rMid2
                {
                  OFFSET -3.10165 -0.590103 1.0647
                  CHANNELS 3 Zrotation Xrotation Yrotation
                  End Site
                  {
                    OFFSET -2.48547 -0.328903 0.83742
                  }
                }
              }
              JOINT rRing1
              {
                OFFSET -8.82822 0.546677 1.51678
                CHANNELS 3 Zrotation Xrotation Yrotation
                JOINT rRing2
                {
                  OFFSET -2.60934 -0.819778 -0.0198488
                  CHANNELS 3 Zrotation Xrotation Yrotation
                  End Site
                  {
                    OFFSET -2.33842 -0.294052 0.168128
                  }
                }
              }
              JOINT rPinky1
              {
                OFFSET -8.27202 -0.0477905 -0.4584
                CHANNELS 3 Zrotation Xrotation Yrotation
                JOINT rPinky2
                {
                  OFFSET -1.82734 -0.647385 -0.700984
                  CHANNELS 3 Zrotation Xrotation Yrotation
                  End Site
                  {
                    OFFSET -1.69225 -0.51767 -0.607171
                  }
                }
              }
            }
          }
        }
      }
      JOINT lCollar
      {
        OFFSET 2.68224 19.2634 -4.8768
        CHANNELS 3 Zrotation Xrotation Yrotation
        JOINT lShldr
        {
          OFFSET 8.77824 -1.95073 1.46304
          CHANNELS 3 Zrotation Xrotation Yrotation
          JOINT lForeArm
          {
            OFFSET 28.1742 -1.7115 0.48768
            CHANNELS 3 Zrotation Xrotation Yrotation
            JOINT lHand
            {
              OFFSET 22.5879 0.773209 7.07136
              CHANNELS 3 Zrotation Xrotation Yrotation
              JOINT lThumb1
              {
                OFFSET 1.2192 -0.487915 3.41376
                CHANNELS 3 Zrotation Xrotation Yrotation
                JOINT lThumb2
                {
                  OFFSET 3.37035 -0.52449 3.41376
                  CHANNELS 3 Zrotation Xrotation Yrotation
                  End Site
                  {
                    OFFSET 1.78271 -1.18214 1.43049
                  }
                }
              }
              JOINT lIndex1
              {
                OFFSET 7.75947 0.938293 5.60832
                CHANNELS 3 Zrotation Xrotation Yrotation
                JOINT lIndex2
                {
                  OFFSET 2.54057 -0.884171 1.56538
                  CHANNELS 3 Zrotation Xrotation Yrotation
                  End Site
                  {
                    OFFSET 1.62519 -0.234802 1.16502
                  }
                }
              }
              JOINT lMid1
              {
                OFFSET 8.24714 1.18213 3.41376
                CHANNELS 3 Zrotation Xrotation Yrotation
                JOINT lMid2
                {
                  OFFSET 3.10165 -0.590103 1.0647
                  CHANNELS 3 Zrotation Xrotation Yrotation
                  End Site
                  {
                    OFFSET 2.48547 -0.328903 0.83742
                  }
                }
              }
              JOINT lRing1
              {
                OFFSET 8.82822 0.546677 1.51678
                CHANNELS 3 Zrotation Xrotation Yrotation
                JOINT lRing2
                {
                  OFFSET 2.60934 -0.819778 -0.0198488
                  CHANNELS 3 Zrotation Xrotation Yrotation
                  End Site
                  {
                    OFFSET 2.33842 -0.294052 0.168128
                  }
                }
              }
              JOINT lPinky1
              {
                OFFSET 8.27202 -0.0477905 -0.4584
                CHANNELS 3 Zrotation Xrotation Yrotation
                JOINT lPinky2
                {
                  OFFSET 1.82734 -0.647385 -0.700984
                  CHANNELS 3 Zrotation Xrotation Yrotation
                  End Site
                  {
                    OFFSET 1.69225 -0.51767 -0.607171
                  }
                }
              }
            }
          }
        }
      }
    }
  }
  JOINT rButtock
  {
    OFFSET -8.77824 4.35084 1.2192
    CHANNELS 3 Zrotation Xrotation Yrotation
    JOINT rThigh
    {
      OFFSET 0 -1.70687 -2.19456
      CHANNELS 3 Zrotation Xrotation Yrotation
      JOINT rShin
      {
        OFFSET 0 -36.8199 0.73152
        CHANNELS 3 Zrotation Xrotation Yrotation
        JOINT rFoot
        {
          OFFSET 0.73152 -45.1104 -5.12064
          CHANNELS 3 Zrotation Xrotation Yrotation
          End Site
          {
            OFFSET -1.1221 -3.69964 12.103
          }
        }
      }
    }
  }
  JOINT lButtock
  {
    OFFSET 8.77824 4.35084 1.2192
    CHANNELS 3 Zrotation Xrotation Yrotation
    JOINT lThigh
    {
      OFFSET 0 -1.70687 -2.19456
      CHANNELS 3 Zrotation Xrotation Yrotation
      JOINT lShin
      {
        OFFSET 0 -36.8199 0.73152
        CHANNELS 3 Zrotation Xrotation Yrotation
        JOINT lFoot
        {
          OFFSET -0.73152 -45.1104 -5.12064
          CHANNELS 3 Zrotation Xrotation Yrotation
          End Site
          {
            OFFSET 1.1221 -3.69964 12.103
          }
        }
      }
    }
  }
}
MOTION
Frames:	6
Frame Time:	0.03333
2.0717 52.2656 -12.1218 -165.32301 -61.570447 179.382519 1.103702 21.237778 -0.356978 8.676597 -12.949654 -4.366431 -8.207423 23.774991 -17.111181 24.447397 -35.241495 -32.522884 -0.001433 0.0 -0.004156 -0.001678 -0.0 0.001543 -14.938444 44.240776 16.82938 -78.60066 45.212672 128.459601 107.258355 -40.346912 -112.88753 -90.276748 72.864983 70.168906 -12.925954 12.051759 3.310039 25.33354 -29.670459 -6.838137 -8.360478 12.236107 5.303328 -177.570201 -32.465482 107.074201 -160.672376 -6.668121 143.244662 2.657399 1.633282 0.586579 -71.9262 72.975163 89.771254 5.860236 0.011857 -4.466238 -139.2239 -4.396869 -136.390808 44.849531 79.478931 -8.40457 -4.251487 -45.380033 8.778481 103.869294 -15.489493 145.766364 -20.943207 16.850819 146.838896 166.432728 19.767898 -138.072118 -1.601056 -1.586162 0.22477 131.315019 -28.282593 -116.414249 -103.838172 -76.254736 -53.536633 22.641371 44.561298 -17.367017 89.835759 60.702099 -81.262598 4.603963 20.797154 -4.469467 -0.004445 1.771436 -0.556169 -11.284783 -44.108018 5.44992 1.203394 -3.047548 1.116152 153.947438 35.847546 148.240375 -179.990135 75.749374 -0.00675 152.849888 10.517945 -0.0 -50.459233 70.197783 -35.669919 38.552903 -46.717318 122.767594 -179.990135 75.749374 -0.00675 -149.772798 2.205889 93.779534 93.64778 -5.990167 -167.335618 161.696586 60.505938 -69.74364
2.1776 53.246 -11.6803 -166.430595 -58.573723 -178.937979 0.579284 21.132543 -0.186339 8.96564 -12.850243 -3.502813 7.690276 37.456054 129.163797 -44.926124 37.076244 -171.875946 0.001008 0.0 0.000545 0.001008 0.0 0.000545 -6.042386 25.599125 7.234546 -115.238681 2.333646 163.267193 88.213885 -40.371342 -92.321309 -162.687891 47.105781 136.054636 -0.441799 0.435173 0.069748 -133.279734 -32.797772 116.7457 -12.942558 17.784132 8.598005 104.272347 -62.032565 51.612153 0.539916 -1.590111 -0.295297 -176.456501 -42.244803 142.909522 0.00046 0.063775 0.019599 11.525261 -40.161234 -4.882886 -26.562833 -38.861066 -25.60619 -136.370284 -14.978552 -134.678827 -4.260515 -46.008868 8.91041 -139.805428 60.058966 80.868188 -174.24512 38.705835 -44.620487 170.017343 9.881275 -140.488791 166.744852 -4.418231 -89.781842 146.315258 4.44993 -73.868504 153.454085 -21.067581 -121.7443 -82.676895 -69.208247 -30.535695 10.976076 25.789947 -7.639533 -3.257438 0.208091 -0.022128 74.388976 -72.132219 91.484333 149.816154 -27.282869 179.832233 85.49467 -50.582912 83.869898 -2.904578 -1.332596 1.441117 -0.0007 -0.000471 0.0009 -50.218893 -53.856242 -56.084468 -24.034558 73.303827 124.386257 -90.853786 67.035845 5.165142 -179.995049 75.747618 -0.003388 -147.766009 5.227635 -2.574523 95.17256 78.351376 -30.752488 -69.392502 24.434227 -29.235183
2.3369 54.176199999999994 -11.2204 -167.116449 -55.488088 -177.720855 0.080679 16.138934 177.867716 -9.459601 7.541888 178.712037 8.542763 35.267942 115.845177 -48.461377 27.357339 -160.878376 -0.005001 0.0 -7.3e-05 0.000722 0.0 0.000133 -6.47268 26.865213 7.714257 60.831722 -14.461454 15.695729 -10.410019 -19.724872 105.000329 -3.556044 6.017447 -0.766032 -166.631232 -4.305068 89.770725 -57.525144 -8.147604 15.934658 -27.608731 30.765601 20.256147 8.379418 -0.795765 -1.57235 5.892656 -18.352042 -2.544067 -145.226652 36.298219 132.173294 -0.000515 -0.018346 -0.006736 -151.320283 -72.677541 -174.610516 8.143408 25.600002 7.176865 -147.240361 9.773849 -143.114691 157.323785 -17.489083 -164.608296 -136.474349 -4.15178 169.79176 6.782754 -5.771968 -104.818593 5.968348 -15.579739 4.335433 0.543888 0.536266 -0.085615 37.28111 26.011017 -33.605624 100.824026 37.733848 -85.162092 -4.688158 2.673778 5.575077 169.088154 -33.247456 -145.37595 25.646732 49.016657 -21.149202 0.015089 -1.323243 0.415277 -10.428222 0.172982 0.04756 -16.182325 56.656056 -12.426101 -1.640196 0.254727 0.442247 0.005478 0.000802 0.002739 -52.233063 -55.560917 -155.776254 -67.586294 -15.705528 129.712161 -80.710609 2.212686 10.521852 -179.99915 75.74825 -0.000581 -147.904459 5.992213 86.136901 94.045541 2.986842 159.667648 -157.131111 34.793411 -128.62035
2.5357000000000003 55.2515 -10.949200000000001 -167.706379 -52.470157 -176.72399 -0.13342 20.584905 -0.380629 9.438694 -12.205168 -1.390881 -1.117067 42.012452 -177.82532 -0.675547 60.456503 123.323563 -0.001301 0.0 -0.001645 -0.001301 0.0 -0.001645 -147.671479 29.084686 152.475287 98.01519 -48.398981 115.209797 149.595927 68.352531 67.461778 176.392469 -4.135104 144.370929 2.461859 -2.446385 -0.326755 -11.347184 11.871118 8.244764 -0.328321 0.529977 0.184444 -171.806979 -27.394555 108.456833 78.534472 -80.920618 49.686246 86.338919 -78.165852 57.80041 -0.000904 0.022533 0.007719 4.296326 41.438419 7.705764 -124.850987 -29.038369 -122.621432 -168.939646 69.765061 -144.440048 0.04885 0.29247 -0.064437 102.24984 -20.191969 -172.395476 -101.904338 -33.345214 108.79145 63.061134 60.947964 -42.062876 78.030724 38.689267 -42.412606 87.012353 -3.538407 -66.597252 0.327518 0.529731 -0.187383 65.768982 48.404402 -50.658686 0.969553 2.779461 -0.554286 7.295637 26.198922 -6.02728 0.000239 0.022666 -0.006837 155.943228 -53.058637 -178.718398 138.833813 -5.321657 136.024382 134.603112 -17.615955 131.657223 -179.991476 75.748809 -0.007014 151.561275 8.680952 4.065595 24.343554 70.265771 75.396808 -10.321833 -1.184962 -79.817317 -0.0 0.000833 0.000384 58.001645 -48.80949 51.063215 89.984349 81.549295 -8.116637 -64.081383 36.972107 -37.976498
2.7542 55.866400000000006 -10.6307 -167.81219 -49.592264 -176.19579 -0.378636 15.312288 -179.250569 -8.97073 7.362773 177.373514 -8.480575 23.442878 -16.711011 25.354119 -35.894483 -29.302312 -9.1e-05 0.0 -0.001688 -0.000302 -0.0 0.003932 -153.586692 -75.693092 -178.256808 -36.619589 -29.620348 -39.977076 -175.600812 38.154744 -73.869004 -8.759346 22.065149 0.47485 -115.53426 32.70263 68.30524 -86.434252 -4.499307 53.512396 10.282211 -18.182486 -4.585665 -82.771098 48.011529 66.468373 0.04778 -0.138516 -0.027169 3.213033 0.054767 -0.018851 0.000897 0.06369 0.021016 -154.178947 -65.019569 -178.245836 44.755156 86.377481 -5.391546 -162.012265 55.558335 -148.26899 155.613975 -4.23676 -161.989988 -132.857937 -14.138705 -179.08612 11.040344 -10.389016 -103.30953 4.61055 -20.334201 4.638033 171.602523 -9.286574 -89.950198 -77.290976 -68.237403 -58.989124 -2.325137 -3.868006 1.259418 -87.527289 -60.124762 -35.711534 166.119857 -24.039801 -145.076792 -145.882212 -73.862941 -113.955925 0.014497 -1.322908 0.417473 140.261263 60.4536 -154.520958 8.191352 -17.575708 7.729936 -45.266335 83.442029 7.537074 -0.0 -0.000972 -0.000781 -53.43984 -53.676711 -47.988061 17.961008 78.319302 164.302164 -107.442324 9.785155 -175.729051 0.0 0.000275 -0.001115 59.982792 -47.500267 -70.492222 -89.479521 -24.956481 162.684997 100.278648 -68.794109 10.65214
2.9358 56.603 -10.2539 -168.071935 -47.185813 -175.819243 -0.614767 19.615519 0.182259 8.93997 -11.686844 -0.916466 8.807784 33.76879 107.359289 -49.557352 20.309427 -153.285991 0.004195 -0.0 -0.003206 -0.001709 -0.0 0.002242 -149.636744 23.301149 154.670797 88.830078 -54.886914 111.914842 -9.108913 -72.603702 95.381065 -6.909951 17.116184 -0.055046 -164.697904 -2.372163 89.585307 6.748633 -53.556608 14.723937 -27.420439 30.639915 20.098096 -85.941501 48.704023 64.264361 -151.475594 17.841784 137.5395 -42.404206 58.298685 36.591881 -145.122089 1.12143 -179.480482 11.867367 52.759218 -2.715737 -146.22539 15.470472 -142.747764 -141.357376 -4.727986 -136.981981 -3.284454 -26.942048 5.275571 89.087145 -41.405758 155.153046 -4.610896 -7.123827 138.039632 172.334405 2.582198 -141.85953 -175.879467 -21.257221 -88.493293 156.541269 5.131391 -87.078602 154.186067 -22.428451 -121.923048 133.778186 32.188587 -108.398161 161.518695 -9.304198 -143.625748 -80.981771 -77.630591 -52.542509 145.122074 1.975057 179.749601 -8.618878 -14.057967 10.952952 146.20775 15.405164 142.73158 -1.157429 -2.661388 2.838993 -179.99266 75.74965 -0.007573 152.080751 6.70599 -102.427622 -79.077678 -7.35165 -131.31165 -97.75862 -28.749105 178.220558 -179.980901 75.749339 -0.013068 -145.160474 10.766649 80.824729 93.911945 6.4009 121.370139 21.029533 29.242852 159.066933
